<?xml version="1.0" encoding="UTF-8"?>
<svg xmlns="http://www.w3.org/2000/svg" version="1.1" viewBox="0 0 163 38">
  <defs>
    <style>
      .cls-1 {
        fill: #fff;
      }

      .cls-2 {
        fill: #f29f05;
      }
    </style>
  </defs>
  <!-- Generator: Adobe Illustrator 28.7.0, SVG Export Plug-In . SVG Version: 1.2.0 Build 136)  -->
  <g>
    <g id="Layer_1">
      <g id="Layer_1-2" data-name="Layer_1">
        <g id="Logo">
          <g id="Logo-2">
            <g id="Elements">
              <path id="Path_1429" class="cls-2" d="M44.9,25.1H5.1v-.9C5.1,12.9,14,3.7,25,3.7s19.9,9.2,19.9,20.5v.9Z"/>
              <path id="Path_1430" class="cls-1" d="M37,19.6c-.6,0-1.2-.4-1.4-1-1.6-4.5-5.8-7.5-10.6-7.5s-1.5-.7-1.5-1.6.7-1.5,1.5-1.5c6,0,11.3,3.9,13.4,9.5.3.8,0,1.7-.9,2h-.5,0Z"/>
              <path id="Path_1431" class="cls-1" d="M31.1,38c-7.7,0-13.9-6.5-13.8-14.2h3c-.2,6,4.6,11,10.6,11.1,6,.2,11-4.6,11.1-10.6v-.6h3c0,7.7-6.1,14.1-13.8,14.2h-.1Z"/>
              <path id="Path_1432" class="cls-1" d="M38.2,24.1c0,3.9-3,7.2-6.9,7.3s-7.2-3-7.3-6.9v-.4h14.2Z"/>
              <path id="Path_1433" class="cls-1" d="M48.5,25.7H1.5c-.8,0-1.5-.7-1.5-1.6s.7-1.5,1.5-1.5h47c.8,0,1.5.7,1.5,1.6s-.7,1.5-1.5,1.5h0Z"/>
              <path id="Path_1434" class="cls-1" d="M25,6.7c-.8,0-1.5-.7-1.5-1.5h0V1.5c0-.8.6-1.5,1.4-1.5s1.5.6,1.5,1.4h0v3.7c0,.8-.7,1.5-1.5,1.5h.1Z"/>
              <path id="Path_1435" class="cls-1" d="M13.9,31.1H4.5c-.8,0-1.5-.7-1.5-1.6s.7-1.5,1.5-1.5h9.5c.8,0,1.5.7,1.5,1.6s-.7,1.5-1.5,1.5h-.1Z"/>
              <path id="Path_1436" class="cls-1" d="M15.4,36.5h-6.5c-.8,0-1.5-.7-1.5-1.6s.7-1.5,1.5-1.5h6.5c.8,0,1.5.7,1.5,1.6s-.7,1.5-1.5,1.5Z"/>
            </g>
          </g>
          <g>
            <path class="cls-1" d="M67.9,26.1c-2,0-3.7-.7-5.1-2-1.4-1.4-2.1-3.1-2.1-5.2s.7-3.8,2.1-5.2c1.4-1.4,3.1-2,5.1-2s3.7.7,5.1,2c1.4,1.4,2.1,3.1,2.1,5.2s-.2,2.2-.7,3.2-1.1,1.8-2,2.5l2.9,3.7h-4.1l-1.7-2.3c-.5.1-1,.2-1.5.2h-.1ZM65.2,16c-.7.7-1,1.7-1,2.9s.3,2.2,1,2.9,1.6,1.1,2.7,1.1,2-.4,2.7-1.1,1-1.7,1-2.9-.3-2.2-1-2.9-1.6-1.1-2.7-1.1-2,.4-2.7,1.1Z"/>
            <path class="cls-1" d="M77.3,20.3v-8.4h3.4v8.4c0,.8.2,1.5.6,1.9.4.5,1,.7,1.8.7s1.4-.2,1.8-.7.6-1.1.6-1.9v-8.4h3.4v8.4c0,1.2-.3,2.3-.9,3.2-.6.9-1.3,1.6-2.2,2-.9.4-1.8.6-2.9.6-1.6,0-3-.5-4.1-1.5s-1.7-2.4-1.7-4.3h.2Z"/>
            <path class="cls-1" d="M92,26v-14h3.4v14h-3.4Z"/>
            <path class="cls-1" d="M99.7,24.1c-1.4-1.4-2.1-3.1-2.1-5.1s.7-3.8,2.1-5.2,3.1-2,5.1-2,2.9.4,4.2,1.2c1.2.8,2.1,2,2.5,3.4h-4.1c-.5-1-1.4-1.5-2.6-1.5s-2.1.4-2.8,1.1c-.7.7-1,1.7-1,2.9s.3,2.2,1,2.9c.7.7,1.6,1.1,2.8,1.1s2-.5,2.6-1.5h4.1c-.5,1.5-1.3,2.6-2.5,3.4s-2.6,1.2-4.2,1.2-3.7-.7-5.1-2h0Z"/>
            <path class="cls-1" d="M117.1,26h-3.4v-14h3.4v6.2l4.6-6.2h4.5l-5.8,7,5.8,7h-4.4l-4.7-6.2v6.2Z"/>
          </g>
          <g>
            <path class="cls-2" d="M136.6,11.9v2.6h-5.1v3h4.5v2.6h-4.5v3.3h5.1v2.6h-8.5v-14.1h8.5Z"/>
            <path class="cls-2" d="M148.5,26l-.8-2.4h-5l-.8,2.4h-3.6l4.9-14.1h4.2l4.9,14.1h-3.8ZM143.5,21h3.3l-1.7-5-1.7,5h0Z"/>
            <path class="cls-2" d="M152.8,14.6v-2.6h11.1v2.6h-3.8v11.4h-3.4v-11.4h-3.9Z"/>
          </g>
        </g>
      </g>
    </g>
  </g>
</svg>